<?xml version="1.0" encoding="UTF-8"?>
<!DOCTYPE svg PUBLIC "-//W3C//DTD SVG 1.1//EN" "http://www.w3.org/Graphics/SVG/1.1/DTD/svg11.dtd">
<svg xmlns="http://www.w3.org/2000/svg" version="1.1" width="3264px" height="3264px" style="shape-rendering:geometricPrecision; text-rendering:geometricPrecision; image-rendering:optimizeQuality; fill-rule:evenodd; clip-rule:evenodd" xmlns:xlink="http://www.w3.org/1999/xlink">
<g><path style="opacity:0.012" fill="#b0af11" d="M 1060.5,646.5 C 1050.51,645.381 1041.01,645.381 1032,646.5C 1029.69,645.129 1027.52,644.462 1025.5,644.5C 1036.69,643.23 1048.03,643.397 1059.5,645C 1060.06,645.383 1060.39,645.883 1060.5,646.5 Z"/></g>
<g><path style="opacity:0.999" fill="#ede612" d="M 1025.5,644.5 C 1027.52,644.462 1029.69,645.129 1032,646.5C 1041.01,645.381 1050.51,645.381 1060.5,646.5C 1069.51,646.334 1078.51,646.5 1087.5,647C 1088.17,647.667 1088.83,648.333 1089.5,649C 1097.5,649.333 1105.5,649.667 1113.5,650C 1122.92,650.994 1132.25,652.494 1141.5,654.5C 1141.5,655.5 1141.5,656.5 1141.5,657.5C 1145.85,657.334 1150.18,657.501 1154.5,658C 1154.96,658.414 1155.29,658.914 1155.5,659.5C 1162.33,660.22 1169,661.387 1175.5,663C 1177.71,664.775 1180.04,666.275 1182.5,667.5C 1185.09,668.48 1187.75,668.813 1190.5,668.5C 1190.83,669.5 1191.5,670.167 1192.5,670.5C 1196.33,671.025 1200,672.025 1203.5,673.5C 1203.5,674.5 1203.5,675.5 1203.5,676.5C 1207.7,676.382 1211.7,677.215 1215.5,679C 1217.81,680.867 1220.47,681.867 1223.5,682C 1224.73,683.405 1226.06,684.571 1227.5,685.5C 1227.5,686.833 1228.17,687.5 1229.5,687.5C 1233.27,687.81 1236.93,688.643 1240.5,690C 1241.31,691.706 1242.64,692.539 1244.5,692.5C 1244.5,693.5 1244.5,694.5 1244.5,695.5C 1246.86,695.337 1249.19,695.503 1251.5,696C 1258.97,700.255 1266.3,704.755 1273.5,709.5C 1273.83,710.5 1274.5,711.167 1275.5,711.5C 1280.46,714.923 1285.79,717.757 1291.5,720C 1292.25,720.671 1292.59,721.504 1292.5,722.5C 1292.97,723.906 1293.97,724.573 1295.5,724.5C 1298.92,726.87 1302.59,728.87 1306.5,730.5C 1306.28,731.675 1306.61,732.675 1307.5,733.5C 1309.38,734.803 1311.04,736.303 1312.5,738C 1313.79,738.49 1315.13,738.657 1316.5,738.5C 1316.5,739.5 1316.5,740.5 1316.5,741.5C 1318.5,742.167 1320.5,742.833 1322.5,743.5C 1322.5,744.5 1322.5,745.5 1322.5,746.5C 1323.5,746.5 1324.5,746.5 1325.5,746.5C 1325.83,749.5 1327.5,751.167 1330.5,751.5C 1330.5,752.5 1330.5,753.5 1330.5,754.5C 1332.17,754.5 1333.83,754.5 1335.5,754.5C 1335.5,755.5 1335.5,756.5 1335.5,757.5C 1336.5,757.5 1337.5,757.5 1338.5,757.5C 1338.5,759.167 1338.5,760.833 1338.5,762.5C 1340.29,762.215 1341.95,762.548 1343.5,763.5C 1345.55,765.654 1347.38,767.987 1349,770.5C 1349.48,771.448 1349.65,772.448 1349.5,773.5C 1351.17,773.5 1352.83,773.5 1354.5,773.5C 1354.5,774.5 1354.5,775.5 1354.5,776.5C 1354.83,777.5 1355.5,778.167 1356.5,778.5C 1357.4,779.209 1357.74,780.209 1357.5,781.5C 1358.5,781.5 1359.5,781.5 1360.5,781.5C 1361.16,783.867 1362.5,785.867 1364.5,787.5C 1365.45,789.045 1365.79,790.712 1365.5,792.5C 1366.5,792.5 1367.5,792.5 1368.5,792.5C 1368.5,793.5 1368.5,794.5 1368.5,795.5C 1371.5,795.833 1373.17,797.5 1373.5,800.5C 1374.5,800.5 1375.5,800.5 1376.5,800.5C 1376.5,802.167 1376.5,803.833 1376.5,805.5C 1379.57,806.243 1381.24,808.243 1381.5,811.5C 1382.5,811.5 1383.5,811.5 1384.5,811.5C 1384.5,813.167 1384.5,814.833 1384.5,816.5C 1385.5,816.5 1386.5,816.5 1387.5,816.5C 1387.5,818.5 1387.5,820.5 1387.5,822.5C 1391.53,823.506 1393.2,826.173 1392.5,830.5C 1393.5,830.5 1394.5,830.5 1395.5,830.5C 1397.42,834.998 1399.92,839.331 1403,843.5C 1403.5,845.473 1403.66,847.473 1403.5,849.5C 1404.5,849.5 1405.5,849.5 1406.5,849.5C 1406.7,853.385 1408.2,856.718 1411,859.5C 1411.5,861.473 1411.66,863.473 1411.5,865.5C 1412.5,865.5 1413.5,865.5 1414.5,865.5C 1414.45,869.675 1415.78,873.341 1418.5,876.5C 1419.48,879.086 1419.81,881.753 1419.5,884.5C 1420.5,884.5 1421.5,884.5 1422.5,884.5C 1422.5,888.167 1422.5,891.833 1422.5,895.5C 1423.5,895.5 1424.5,895.5 1425.5,895.5C 1424.52,901.392 1426.02,906.392 1430,910.5C 1430.17,914.541 1430.67,918.541 1431.5,922.5C 1432.09,922.709 1432.59,923.043 1433,923.5C 1433.81,932.182 1434.65,940.848 1435.5,949.5C 1436.17,950.833 1437.17,951.833 1438.5,952.5C 1438.67,980.835 1438.5,1009.17 1438,1037.5C 1437.33,1038.17 1436.67,1038.83 1436,1039.5C 1434.56,1051.37 1432.56,1063.04 1430,1074.5C 1428.18,1076.92 1426.85,1079.58 1426,1082.5C 1424.92,1088.29 1423.59,1093.95 1422,1099.5C 1418.58,1105.07 1415.91,1111.07 1414,1117.5C 1409.84,1124.49 1406.17,1131.82 1403,1139.5C 1398.83,1145.18 1395.16,1151.18 1392,1157.5C 1388.59,1161.03 1385.93,1165.03 1384,1169.5C 1381.42,1171.23 1379.92,1173.56 1379.5,1176.5C 1378.5,1176.5 1377.5,1176.5 1376.5,1176.5C 1376.66,1177.87 1376.49,1179.21 1376,1180.5C 1368.45,1187.2 1362.28,1194.87 1357.5,1203.5C 1356.5,1203.5 1355.5,1203.5 1354.5,1203.5C 1354.72,1204.68 1354.39,1205.68 1353.5,1206.5C 1351.7,1208.98 1349.36,1210.65 1346.5,1211.5C 1346.72,1212.68 1346.39,1213.68 1345.5,1214.5C 1341.06,1218.55 1336.72,1222.72 1332.5,1227C 1327.5,1231.35 1322.17,1235.19 1316.5,1238.5C 1316.72,1239.68 1316.39,1240.68 1315.5,1241.5C 1311.63,1243.27 1308.3,1245.77 1305.5,1249C 1303.87,1249.49 1302.2,1249.66 1300.5,1249.5C 1300.76,1250.98 1300.43,1252.31 1299.5,1253.5C 1292.17,1257.83 1285.17,1262.67 1278.5,1268C 1276.87,1268.49 1275.2,1268.66 1273.5,1268.5C 1273.5,1269.5 1273.5,1270.5 1273.5,1271.5C 1260.9,1278.06 1248.23,1284.72 1235.5,1291.5C 1224.48,1296.18 1213.48,1301.01 1202.5,1306C 1197.3,1306.21 1192.63,1307.87 1188.5,1311C 1185.04,1310.91 1182.04,1311.91 1179.5,1314C 1169.38,1316.12 1159.38,1318.78 1149.5,1322C 1145.5,1322.33 1141.5,1322.67 1137.5,1323C 1136.83,1323.67 1136.17,1324.33 1135.5,1325C 1130.14,1325.17 1124.8,1325.67 1119.5,1326.5C 1115.25,1327.91 1110.91,1329.08 1106.5,1330C 1099.5,1330.33 1092.5,1330.67 1085.5,1331C 1084.67,1331.91 1083.67,1332.58 1082.5,1333C 1069.5,1333.33 1056.5,1333.67 1043.5,1334C 1042.38,1335.04 1041.04,1335.71 1039.5,1336C 1012.17,1336.67 984.833,1336.67 957.5,1336C 955.285,1335.83 953.285,1335.16 951.5,1334C 925.167,1333.67 898.833,1333.33 872.5,1333C 865.921,1330.94 859.088,1330.11 852,1330.5C 846.833,1330.67 841.667,1330.83 836.5,1331C 834.913,1331.86 833.246,1332.53 831.5,1333C 820.5,1333.33 809.5,1333.67 798.5,1334C 797.672,1334.91 796.672,1335.58 795.5,1336C 785.776,1336.45 776.109,1337.45 766.5,1339C 765.833,1339.67 765.167,1340.33 764.5,1341C 756.604,1341.59 748.937,1342.93 741.5,1345C 725.733,1350.02 710.066,1355.35 694.5,1361C 693.833,1361.67 693.167,1362.33 692.5,1363C 687.788,1363.86 683.455,1365.53 679.5,1368C 673.047,1370.29 666.547,1372.46 660,1374.5C 656.77,1375.42 653.937,1376.92 651.5,1379C 648.833,1379.33 646.167,1379.67 643.5,1380C 636.056,1382.7 628.556,1385.2 621,1387.5C 619.342,1387.32 618.009,1386.66 617,1385.5C 616.333,1382.17 616.333,1378.83 617,1375.5C 634.747,1346.24 652.247,1316.58 669.5,1286.5C 670.314,1284.23 670.814,1281.9 671,1279.5C 674.648,1272.4 677.814,1265.06 680.5,1257.5C 681.666,1246.85 681.832,1236.18 681,1225.5C 677.841,1213.6 674.174,1201.94 670,1190.5C 666.288,1185.74 663.621,1180.41 662,1174.5C 653.304,1158.48 644.638,1142.48 636,1126.5C 634.111,1120.72 631.611,1115.22 628.5,1110C 625.803,1103.65 623.803,1097.15 622.5,1090.5C 622.869,1088.01 622.203,1087.34 620.5,1088.5C 615.98,1075.77 612.147,1062.77 609,1049.5C 608.667,1044.83 608.333,1040.17 608,1035.5C 607.333,1034.17 606.667,1032.83 606,1031.5C 605.333,1005.83 605.333,980.167 606,954.5C 606.419,953.328 607.085,952.328 608,951.5C 608.333,945.833 608.667,940.167 609,934.5C 610.945,930.729 612.278,926.729 613,922.5C 614.364,908.201 618.031,894.534 624,881.5C 624.333,879.167 624.667,876.833 625,874.5C 626.536,869.452 628.869,864.785 632,860.5C 633.593,856.297 634.926,851.964 636,847.5C 639.752,842.663 642.418,837.33 644,831.5C 645.747,828.275 647.914,825.275 650.5,822.5C 651.796,819.049 653.296,815.715 655,812.5C 659.572,807.686 663.405,802.353 666.5,796.5C 667.689,795.571 669.022,795.238 670.5,795.5C 670.642,791.367 672.642,788.701 676.5,787.5C 679.017,783.292 682.017,779.292 685.5,775.5C 690.315,771.852 694.648,767.685 698.5,763C 699.9,761.562 701.567,760.729 703.5,760.5C 703.703,758.362 704.703,756.695 706.5,755.5C 709.473,753.63 712.306,751.63 715,749.5C 715.483,748.552 715.649,747.552 715.5,746.5C 716.978,746.762 718.311,746.429 719.5,745.5C 732.437,735.931 745.437,726.431 758.5,717C 764.232,716.082 768.898,713.415 772.5,709C 777.725,707.315 782.725,705.149 787.5,702.5C 789.638,701.256 791.638,699.756 793.5,698C 800.333,696.921 806.333,694.255 811.5,690C 818.876,688.946 825.542,686.28 831.5,682C 838.999,679.251 846.666,677.084 854.5,675.5C 856.861,674.142 859.194,672.642 861.5,671C 867.697,670.6 873.697,669.434 879.5,667.5C 882.54,666.2 885.54,664.7 888.5,663C 896.126,661.699 903.793,660.699 911.5,660C 911.957,659.586 912.291,659.086 912.5,658.5C 917.5,657.833 922.5,657.167 927.5,656.5C 927.709,655.914 928.043,655.414 928.5,655C 932.946,654.472 937.279,653.472 941.5,652C 947.341,651.953 953.008,651.286 958.5,650C 968.161,649.5 977.828,649.334 987.5,649.5C 987.5,648.5 987.5,647.5 987.5,646.5C 1000.34,646.854 1013.01,646.187 1025.5,644.5 Z"/></g>
<g><path style="opacity:0.004" fill="#000000" d="M 1190.5,668.5 C 1191.83,668.5 1192.5,669.167 1192.5,670.5C 1191.5,670.167 1190.83,669.5 1190.5,668.5 Z"/></g>
<g><path style="opacity:0.004" fill="#000000" d="M 1227.5,685.5 C 1228.5,685.833 1229.17,686.5 1229.5,687.5C 1228.17,687.5 1227.5,686.833 1227.5,685.5 Z"/></g>
<g><path style="opacity:0.004" fill="#000000" d="M 1273.5,709.5 C 1274.83,709.5 1275.5,710.167 1275.5,711.5C 1274.5,711.167 1273.83,710.5 1273.5,709.5 Z"/></g>
<g><path style="opacity:0.004" fill="#000000" d="M 1292.5,722.5 C 1294.03,722.427 1295.03,723.094 1295.5,724.5C 1293.97,724.573 1292.97,723.906 1292.5,722.5 Z"/></g>
<g><path style="opacity:0.004" fill="#000000" d="M 1354.5,776.5 C 1355.83,776.5 1356.5,777.167 1356.5,778.5C 1355.5,778.167 1354.83,777.5 1354.5,776.5 Z"/></g>
<g><path style="opacity:0.004" fill="#000000" d="M 1435.5,949.5 C 1437.5,949.5 1438.5,950.5 1438.5,952.5C 1437.17,951.833 1436.17,950.833 1435.5,949.5 Z"/></g>
<g><path style="opacity:0.008" fill="#545310" d="M 622.5,1090.5 C 621.5,1090.17 620.833,1089.5 620.5,1088.5C 622.203,1087.34 622.869,1088.01 622.5,1090.5 Z"/></g>
<g><path style="opacity:0.983" fill="#3b3b3b" d="M 1839.5,1400.5 C 1880.19,1400.12 1920.86,1400.95 1961.5,1403C 1961.96,1403.41 1962.29,1403.91 1962.5,1404.5C 1974.15,1405.5 1985.81,1405.83 1997.5,1405.5C 1997.5,1406.5 1997.5,1407.5 1997.5,1408.5C 2013.16,1407.95 2028.66,1408.95 2044,1411.5C 2044.67,1414.17 2044.67,1416.83 2044,1419.5C 2034.38,1451.21 2023.38,1482.54 2011,1513.5C 1933,1692.7 1845,1866.36 1747,2034.5C 1741.28,2045.56 1735.61,2056.56 1730,2067.5C 1725.71,2071.2 1723.21,2075.87 1722.5,2081.5C 1721.5,2081.5 1720.5,2081.5 1719.5,2081.5C 1719.66,2083.2 1719.49,2084.87 1719,2086.5C 1717.33,2087.5 1716,2088.83 1715,2090.5C 1713.28,2093.62 1712.11,2096.96 1711.5,2100.5C 1710.5,2100.5 1709.5,2100.5 1708.5,2100.5C 1708.31,2103.31 1707.64,2105.98 1706.5,2108.5C 1705.5,2108.5 1704.5,2108.5 1703.5,2108.5C 1702.85,2112.3 1701.85,2115.96 1700.5,2119.5C 1699.5,2119.5 1698.5,2119.5 1697.5,2119.5C 1697.31,2122.33 1696.64,2125 1695.5,2127.5C 1694.5,2127.5 1693.5,2127.5 1692.5,2127.5C 1692.66,2129.2 1692.49,2130.87 1692,2132.5C 1690.2,2135.75 1688.03,2138.75 1685.5,2141.5C 1684.55,2143.05 1684.21,2144.71 1684.5,2146.5C 1683.5,2146.5 1682.5,2146.5 1681.5,2146.5C 1680.69,2151.94 1678.35,2156.61 1674.5,2160.5C 1673.55,2162.05 1673.21,2163.71 1673.5,2165.5C 1672.5,2165.5 1671.5,2165.5 1670.5,2165.5C 1669.28,2170.12 1667.61,2174.45 1665.5,2178.5C 1664.5,2178.5 1663.5,2178.5 1662.5,2178.5C 1662.8,2180.6 1662.47,2182.6 1661.5,2184.5C 1660.1,2187.21 1658.76,2189.87 1657.5,2192.5C 1656.5,2192.5 1655.5,2192.5 1654.5,2192.5C 1654.79,2194.29 1654.45,2195.95 1653.5,2197.5C 1650.94,2202.15 1648.61,2206.82 1646.5,2211.5C 1645.5,2211.5 1644.5,2211.5 1643.5,2211.5C 1643.22,2214.63 1642.38,2217.63 1641,2220.5C 1639.74,2222.75 1637.91,2224.08 1635.5,2224.5C 1635.39,2228 1634.56,2231.33 1633,2234.5C 1627.65,2240.12 1624.15,2246.78 1622.5,2254.5C 1621.5,2254.5 1620.5,2254.5 1619.5,2254.5C 1619.66,2255.87 1619.49,2257.21 1619,2258.5C 1615.76,2264.9 1611.93,2270.9 1607.5,2276.5C 1606.55,2278.05 1606.21,2279.71 1606.5,2281.5C 1605.5,2281.5 1604.5,2281.5 1603.5,2281.5C 1603.5,2283.17 1603.5,2284.83 1603.5,2286.5C 1602.5,2286.5 1601.5,2286.5 1600.5,2286.5C 1601.02,2290.32 1599.68,2293.32 1596.5,2295.5C 1595.55,2297.05 1595.21,2298.71 1595.5,2300.5C 1594.5,2300.5 1593.5,2300.5 1592.5,2300.5C 1592.5,2302.17 1592.5,2303.83 1592.5,2305.5C 1591.5,2305.5 1590.5,2305.5 1589.5,2305.5C 1588.12,2310.37 1586.46,2315.04 1584.5,2319.5C 1583.5,2319.5 1582.5,2319.5 1581.5,2319.5C 1581.31,2322.31 1580.64,2324.98 1579.5,2327.5C 1578.5,2327.5 1577.5,2327.5 1576.5,2327.5C 1576.5,2329.17 1576.5,2330.83 1576.5,2332.5C 1575.5,2332.5 1574.5,2332.5 1573.5,2332.5C 1573.8,2334.6 1573.47,2336.6 1572.5,2338.5C 1570.6,2340.87 1569.26,2343.53 1568.5,2346.5C 1567.5,2346.5 1566.5,2346.5 1565.5,2346.5C 1565.5,2348.17 1565.5,2349.83 1565.5,2351.5C 1564.5,2351.5 1563.5,2351.5 1562.5,2351.5C 1563.18,2355.79 1561.51,2358.46 1557.5,2359.5C 1557.5,2361.5 1557.5,2363.5 1557.5,2365.5C 1556.5,2365.5 1555.5,2365.5 1554.5,2365.5C 1553.42,2370.08 1551.75,2374.41 1549.5,2378.5C 1548.5,2378.5 1547.5,2378.5 1546.5,2378.5C 1546.5,2380.5 1546.5,2382.5 1546.5,2384.5C 1545.5,2384.5 1544.5,2384.5 1543.5,2384.5C 1542.28,2389.12 1540.61,2393.45 1538.5,2397.5C 1537.5,2397.5 1536.5,2397.5 1535.5,2397.5C 1535.8,2399.6 1535.47,2401.6 1534.5,2403.5C 1533.1,2406.21 1531.76,2408.87 1530.5,2411.5C 1529.5,2411.5 1528.5,2411.5 1527.5,2411.5C 1526.79,2417.67 1524.29,2423 1520,2427.5C 1519.52,2428.45 1519.35,2429.45 1519.5,2430.5C 1518.5,2430.5 1517.5,2430.5 1516.5,2430.5C 1515.83,2433.83 1515.17,2437.17 1514.5,2440.5C 1513.5,2440.5 1512.5,2440.5 1511.5,2440.5C 1511.5,2441.5 1511.5,2442.5 1511.5,2443.5C 1510.5,2443.5 1509.5,2443.5 1508.5,2443.5C 1507.68,2450.95 1504.68,2457.28 1499.5,2462.5C 1498.55,2464.05 1498.21,2465.71 1498.5,2467.5C 1497.5,2467.5 1496.5,2467.5 1495.5,2467.5C 1495.66,2469.2 1495.49,2470.87 1495,2472.5C 1493.25,2475.75 1491.09,2478.75 1488.5,2481.5C 1487.55,2483.05 1487.21,2484.71 1487.5,2486.5C 1486.5,2486.5 1485.5,2486.5 1484.5,2486.5C 1484.66,2488.2 1484.49,2489.87 1484,2491.5C 1480.51,2493.5 1479.01,2496.5 1479.5,2500.5C 1478.5,2500.5 1477.5,2500.5 1476.5,2500.5C 1476.5,2502.17 1476.5,2503.83 1476.5,2505.5C 1475.5,2505.5 1474.5,2505.5 1473.5,2505.5C 1473.31,2508.31 1472.64,2510.98 1471.5,2513.5C 1470.5,2513.5 1469.5,2513.5 1468.5,2513.5C 1468.5,2515.5 1468.5,2517.5 1468.5,2519.5C 1467.5,2519.5 1466.5,2519.5 1465.5,2519.5C 1465.5,2521.17 1465.5,2522.83 1465.5,2524.5C 1464.5,2524.5 1463.5,2524.5 1462.5,2524.5C 1461.36,2527 1460.69,2529.67 1460.5,2532.5C 1459.5,2532.5 1458.5,2532.5 1457.5,2532.5C 1457.66,2534.2 1457.49,2535.87 1457,2537.5C 1454.79,2540.11 1453.29,2543.11 1452.5,2546.5C 1451.5,2546.5 1450.5,2546.5 1449.5,2546.5C 1449.5,2548.17 1449.5,2549.83 1449.5,2551.5C 1448.5,2551.5 1447.5,2551.5 1446.5,2551.5C 1446.66,2553.2 1446.49,2554.87 1446,2556.5C 1443.78,2559.2 1442.28,2562.2 1441.5,2565.5C 1440.5,2565.5 1439.5,2565.5 1438.5,2565.5C 1438.5,2567.17 1438.5,2568.83 1438.5,2570.5C 1437.5,2570.5 1436.5,2570.5 1435.5,2570.5C 1435.31,2573.31 1434.64,2575.98 1433.5,2578.5C 1432.5,2578.5 1431.5,2578.5 1430.5,2578.5C 1430.66,2579.87 1430.49,2581.21 1430,2582.5C 1427.58,2584.11 1425.08,2585.45 1422.5,2586.5C 1422.5,2587.5 1422.5,2588.5 1422.5,2589.5C 1420.5,2589.5 1418.5,2589.5 1416.5,2589.5C 1416.5,2590.5 1416.5,2591.5 1416.5,2592.5C 1411.17,2593.17 1405.83,2593.83 1400.5,2594.5C 1400.5,2595.5 1400.5,2596.5 1400.5,2597.5C 1397.48,2597.34 1394.48,2597.5 1391.5,2598C 1390.83,2598.67 1390.17,2599.33 1389.5,2600C 1385.6,2600.22 1381.94,2601.22 1378.5,2603C 1369.86,2604.16 1361.19,2605 1352.5,2605.5C 1352.5,2606.5 1352.5,2607.5 1352.5,2608.5C 1346.83,2608.5 1341.17,2608.5 1335.5,2608.5C 1335.5,2609.5 1335.5,2610.5 1335.5,2611.5C 1323.19,2612.48 1310.85,2613.15 1298.5,2613.5C 1298.5,2614.5 1298.5,2615.5 1298.5,2616.5C 1281.15,2618.86 1263.48,2620.19 1245.5,2620.5C 1238.8,2620.44 1232.13,2619.94 1225.5,2619C 1224.22,2617.35 1222.55,2616.19 1220.5,2615.5C 1218.01,2607.57 1217.84,2599.57 1220,2591.5C 1264.29,2505.22 1307.95,2418.56 1351,2331.5C 1401.84,2226.6 1452.34,2121.77 1502.5,2017C 1495.01,2009.01 1487.35,2001.18 1479.5,1993.5C 1478.68,1992.61 1477.68,1992.28 1476.5,1992.5C 1474.83,1989.83 1473.17,1987.17 1471.5,1984.5C 1470.5,1984.5 1469.5,1984.5 1468.5,1984.5C 1468.5,1983.5 1468.5,1982.5 1468.5,1981.5C 1465.83,1979.83 1463.17,1978.17 1460.5,1976.5C 1460.5,1975.5 1460.5,1974.5 1460.5,1973.5C 1459.5,1973.5 1458.5,1973.5 1457.5,1973.5C 1455.83,1970.83 1454.17,1968.17 1452.5,1965.5C 1451.5,1965.5 1450.5,1965.5 1449.5,1965.5C 1449.5,1964.5 1449.5,1963.5 1449.5,1962.5C 1446.5,1962.17 1444.83,1960.5 1444.5,1957.5C 1443.5,1957.5 1442.5,1957.5 1441.5,1957.5C 1441.5,1956.5 1441.5,1955.5 1441.5,1954.5C 1438.5,1954.17 1436.83,1952.5 1436.5,1949.5C 1435.5,1949.5 1434.5,1949.5 1433.5,1949.5C 1433.5,1948.5 1433.5,1947.5 1433.5,1946.5C 1432.5,1946.5 1431.5,1946.5 1430.5,1946.5C 1430.5,1945.5 1430.5,1944.5 1430.5,1943.5C 1427.5,1943.17 1425.83,1941.5 1425.5,1938.5C 1424.5,1938.5 1423.5,1938.5 1422.5,1938.5C 1422.5,1937.5 1422.5,1936.5 1422.5,1935.5C 1419.5,1935.17 1417.83,1933.5 1417.5,1930.5C 1416.5,1930.5 1415.5,1930.5 1414.5,1930.5C 1414.5,1929.5 1414.5,1928.5 1414.5,1927.5C 1411.5,1927.17 1409.83,1925.5 1409.5,1922.5C 1408.5,1922.5 1407.5,1922.5 1406.5,1922.5C 1406.5,1921.5 1406.5,1920.5 1406.5,1919.5C 1405.5,1919.5 1404.5,1919.5 1403.5,1919.5C 1403.5,1918.5 1403.5,1917.5 1403.5,1916.5C 1400.5,1916.17 1398.83,1914.5 1398.5,1911.5C 1397.5,1911.5 1396.5,1911.5 1395.5,1911.5C 1395.5,1910.5 1395.5,1909.5 1395.5,1908.5C 1392.5,1908.17 1390.83,1906.5 1390.5,1903.5C 1389.5,1903.5 1388.5,1903.5 1387.5,1903.5C 1387.5,1902.5 1387.5,1901.5 1387.5,1900.5C 1384.83,1898.83 1382.17,1897.17 1379.5,1895.5C 1379.5,1894.5 1379.5,1893.5 1379.5,1892.5C 1378.5,1892.5 1377.5,1892.5 1376.5,1892.5C 1376.72,1891.32 1376.39,1890.32 1375.5,1889.5C 1354.82,1867.32 1333.66,1845.66 1312,1824.5C 1310.56,1823.1 1309.73,1821.43 1309.5,1819.5C 1308.5,1819.5 1307.5,1819.5 1306.5,1819.5C 1306.5,1818.5 1306.5,1817.5 1306.5,1816.5C 1304.86,1816.52 1303.52,1815.85 1302.5,1814.5C 1292.19,1802.22 1281.19,1790.55 1269.5,1779.5C 1268.61,1778.68 1268.28,1777.68 1268.5,1776.5C 1267.5,1776.5 1266.5,1776.5 1265.5,1776.5C 1265.72,1775.32 1265.39,1774.32 1264.5,1773.5C 1258.61,1768 1253.28,1762 1248.5,1755.5C 1239.7,1748.04 1232.03,1739.7 1225.5,1730.5C 1224.5,1730.5 1223.5,1730.5 1222.5,1730.5C 1214.08,1718.38 1204.24,1707.38 1193,1697.5C 1191.56,1696.1 1190.73,1694.43 1190.5,1692.5C 1189.5,1692.5 1188.5,1692.5 1187.5,1692.5C 1185.96,1688.79 1183.8,1685.45 1181,1682.5C 1173,1675.17 1165.33,1667.5 1158,1659.5C 1156.63,1657.63 1155.47,1655.63 1154.5,1653.5C 1142.49,1641.65 1130.99,1629.32 1120,1616.5C 1119.33,1612.17 1119.33,1607.83 1120,1603.5C 1127.55,1592.65 1137.05,1584.15 1148.5,1578C 1153.44,1573.06 1158.94,1568.9 1165,1565.5C 1170.02,1563.88 1174.19,1561.04 1177.5,1557C 1178.83,1556.67 1180.17,1556.33 1181.5,1556C 1187.31,1551.73 1193.31,1547.73 1199.5,1544C 1200.79,1543.51 1202.13,1543.34 1203.5,1543.5C 1203.5,1542.5 1203.5,1541.5 1203.5,1540.5C 1206.69,1541.04 1209.19,1540.04 1211,1537.5C 1213.05,1536.39 1215.21,1535.72 1217.5,1535.5C 1217.5,1534.5 1217.5,1533.5 1217.5,1532.5C 1219.29,1532.79 1220.95,1532.45 1222.5,1531.5C 1225.75,1529.84 1229.08,1528.17 1232.5,1526.5C 1238.16,1522 1244.49,1518.5 1251.5,1516C 1255.11,1514.09 1258.44,1511.75 1261.5,1509C 1264.62,1507.28 1267.96,1506.11 1271.5,1505.5C 1271.5,1504.5 1271.5,1503.5 1271.5,1502.5C 1274.98,1502.11 1278.32,1501.11 1281.5,1499.5C 1290.73,1494.25 1300.06,1489.08 1309.5,1484C 1316.07,1482.3 1322.4,1480.47 1328.5,1478.5C 1328.5,1477.5 1328.5,1476.5 1328.5,1475.5C 1333.83,1474.83 1339.17,1474.17 1344.5,1473.5C 1344.5,1472.5 1344.5,1471.5 1344.5,1470.5C 1345.87,1470.34 1347.21,1470.51 1348.5,1471C 1349.96,1472.7 1351.62,1474.2 1353.5,1475.5C 1354.39,1476.32 1354.72,1477.32 1354.5,1478.5C 1355.5,1478.5 1356.5,1478.5 1357.5,1478.5C 1359.41,1481.66 1361.24,1485 1363,1488.5C 1368.95,1493.11 1373.45,1498.77 1376.5,1505.5C 1377.5,1505.5 1378.5,1505.5 1379.5,1505.5C 1381.06,1509.22 1383.56,1512.22 1387,1514.5C 1389.12,1517.75 1390.95,1521.08 1392.5,1524.5C 1393.5,1524.5 1394.5,1524.5 1395.5,1524.5C 1399.04,1529.88 1403.2,1534.88 1408,1539.5C 1408.49,1540.79 1408.66,1542.13 1408.5,1543.5C 1409.5,1543.5 1410.5,1543.5 1411.5,1543.5C 1411.5,1544.5 1411.5,1545.5 1411.5,1546.5C 1414.36,1547.35 1416.7,1549.02 1418.5,1551.5C 1422.87,1557.59 1427.71,1563.26 1433,1568.5C 1434.44,1569.9 1435.27,1571.57 1435.5,1573.5C 1436.68,1573.28 1437.68,1573.61 1438.5,1574.5C 1443.17,1578.93 1446.84,1583.93 1449.5,1589.5C 1452.17,1591.17 1454.83,1592.83 1457.5,1594.5C 1461.04,1599.88 1465.2,1604.88 1470,1609.5C 1471.45,1611.76 1472.62,1614.09 1473.5,1616.5C 1477.83,1617.5 1480.5,1620.17 1481.5,1624.5C 1482.5,1624.5 1483.5,1624.5 1484.5,1624.5C 1484.5,1625.5 1484.5,1626.5 1484.5,1627.5C 1487.5,1627.83 1489.17,1629.5 1489.5,1632.5C 1490.5,1632.5 1491.5,1632.5 1492.5,1632.5C 1492.5,1633.5 1492.5,1634.5 1492.5,1635.5C 1493.5,1635.5 1494.5,1635.5 1495.5,1635.5C 1495.28,1636.68 1495.61,1637.68 1496.5,1638.5C 1501.52,1642.84 1505.85,1647.84 1509.5,1653.5C 1510.7,1655.3 1512.36,1656.3 1514.5,1656.5C 1515.17,1658.5 1515.83,1660.5 1516.5,1662.5C 1518.43,1662.73 1520.1,1663.56 1521.5,1665C 1525,1669.17 1528.83,1673 1533,1676.5C 1534.44,1677.9 1535.27,1679.57 1535.5,1681.5C 1539.83,1682.5 1542.5,1685.17 1543.5,1689.5C 1545.43,1689.73 1547.1,1690.56 1548.5,1692C 1552,1696.17 1555.83,1700 1560,1703.5C 1561.44,1704.9 1562.27,1706.57 1562.5,1708.5C 1564.43,1708.73 1566.1,1709.56 1567.5,1711C 1571.68,1715.68 1576.01,1720.18 1580.5,1724.5C 1585.67,1728.26 1590.67,1732.26 1595.5,1736.5C 1596.85,1737.52 1597.52,1738.86 1597.5,1740.5C 1598.5,1740.5 1599.5,1740.5 1600.5,1740.5C 1600.5,1741.5 1600.5,1742.5 1600.5,1743.5C 1604.83,1744.5 1607.5,1747.17 1608.5,1751.5C 1614.9,1754.04 1620.23,1758.04 1624.5,1763.5C 1625.32,1764.39 1626.32,1764.72 1627.5,1764.5C 1627.5,1765.5 1627.5,1766.5 1627.5,1767.5C 1628.5,1767.5 1629.5,1767.5 1630.5,1767.5C 1630.5,1768.5 1630.5,1769.5 1630.5,1770.5C 1633.17,1771.5 1635.83,1772.5 1638.5,1773.5C 1638.34,1771.8 1638.51,1770.13 1639,1768.5C 1642.64,1763.05 1645.81,1757.38 1648.5,1751.5C 1649.45,1749.95 1649.79,1748.29 1649.5,1746.5C 1650.5,1746.5 1651.5,1746.5 1652.5,1746.5C 1652.34,1744.8 1652.51,1743.13 1653,1741.5C 1663.85,1722.7 1673.52,1703.37 1682,1683.5C 1687.61,1671.72 1693.44,1660.06 1699.5,1648.5C 1700.45,1646.95 1700.79,1645.29 1700.5,1643.5C 1701.5,1643.5 1702.5,1643.5 1703.5,1643.5C 1703.34,1641.8 1703.51,1640.13 1704,1638.5C 1712.21,1620.05 1720.88,1601.72 1730,1583.5C 1730.49,1581.87 1730.66,1580.2 1730.5,1578.5C 1731.5,1578.5 1732.5,1578.5 1733.5,1578.5C 1734.22,1574.83 1735.05,1571.17 1736,1567.5C 1743.12,1552.78 1750.12,1538.11 1757,1523.5C 1757.33,1521.5 1757.67,1519.5 1758,1517.5C 1760.3,1513.19 1762.63,1508.86 1765,1504.5C 1765.33,1502.5 1765.67,1500.5 1766,1498.5C 1768.77,1494.09 1771.1,1489.43 1773,1484.5C 1774.11,1480.75 1775.28,1477.08 1776.5,1473.5C 1777.5,1473.5 1778.5,1473.5 1779.5,1473.5C 1779.34,1471.14 1779.5,1468.81 1780,1466.5C 1781.37,1462.35 1782.87,1458.35 1784.5,1454.5C 1785.5,1454.5 1786.5,1454.5 1787.5,1454.5C 1787.34,1452.14 1787.5,1449.81 1788,1447.5C 1792.48,1439.21 1796.98,1430.87 1801.5,1422.5C 1802.7,1420.7 1804.36,1419.7 1806.5,1419.5C 1807.35,1416.64 1809.02,1414.3 1811.5,1412.5C 1814.66,1409.78 1818.33,1408.45 1822.5,1408.5C 1822.5,1407.5 1822.5,1406.5 1822.5,1405.5C 1827.48,1403.21 1832.81,1402.05 1838.5,1402C 1839.06,1401.62 1839.39,1401.12 1839.5,1400.5 Z"/></g>
<g><path style="opacity:0.984" fill="#3b3b3b" d="M 2415.5,1489.5 C 2444.51,1489.97 2473.51,1490.8 2502.5,1492C 2504.71,1492.17 2506.71,1492.84 2508.5,1494C 2517.17,1494.33 2525.83,1494.67 2534.5,1495C 2534.96,1495.41 2535.29,1495.91 2535.5,1496.5C 2541.5,1497.17 2547.5,1497.83 2553.5,1498.5C 2553.71,1499.09 2554.04,1499.59 2554.5,1500C 2565.95,1500.52 2577.29,1501.52 2588.5,1503C 2588.96,1503.41 2589.29,1503.91 2589.5,1504.5C 2593.17,1505.17 2596.83,1505.83 2600.5,1506.5C 2600.71,1507.09 2601.04,1507.59 2601.5,1508C 2608.69,1508.29 2615.69,1509.29 2622.5,1511C 2635.23,1515.03 2648.23,1518.69 2661.5,1522C 2664.03,1524.06 2667.03,1525.06 2670.5,1525C 2671.17,1525.67 2671.83,1526.33 2672.5,1527C 2676.83,1528 2681.17,1529 2685.5,1530C 2688.89,1531.58 2692.23,1533.24 2695.5,1535C 2702.4,1536.51 2709.07,1538.51 2715.5,1541C 2735.1,1550.65 2755.1,1559.65 2775.5,1568C 2791.22,1577.53 2807.22,1586.53 2823.5,1595C 2825.4,1596.45 2827.07,1598.11 2828.5,1600C 2832.81,1601.49 2836.81,1603.49 2840.5,1606C 2852.72,1614.75 2864.72,1623.58 2876.5,1632.5C 2876.5,1633.5 2876.5,1634.5 2876.5,1635.5C 2889.02,1643.68 2899.68,1654.01 2908.5,1666.5C 2909.32,1667.39 2910.32,1667.72 2911.5,1667.5C 2913.14,1670.73 2915.3,1673.73 2918,1676.5C 2919.01,1678.02 2919.51,1679.69 2919.5,1681.5C 2921.59,1681.56 2923.09,1682.56 2924,1684.5C 2928.18,1692.21 2932.85,1699.54 2938,1706.5C 2941.69,1714.53 2945.35,1722.53 2949,1730.5C 2951.58,1738.33 2953.74,1746.33 2955.5,1754.5C 2956.09,1754.71 2956.59,1755.04 2957,1755.5C 2959.47,1769.99 2962.14,1784.32 2965,1798.5C 2965.35,1814.67 2965.85,1830.84 2966.5,1847C 2965.85,1863.49 2965.35,1879.99 2965,1896.5C 2963.04,1907.46 2961.37,1918.46 2960,1929.5C 2958.11,1933.6 2957.11,1937.93 2957,1942.5C 2956.59,1942.96 2956.09,1943.29 2955.5,1943.5C 2954.36,1949.84 2953.2,1956.18 2952,1962.5C 2946.06,1980.26 2939.73,1997.93 2933,2015.5C 2931.23,2017.71 2929.73,2020.04 2928.5,2022.5C 2924.33,2033.49 2919.66,2044.16 2914.5,2054.5C 2913.5,2054.5 2912.5,2054.5 2911.5,2054.5C 2911.66,2056.2 2911.49,2057.87 2911,2059.5C 2908.87,2062.61 2907.04,2065.94 2905.5,2069.5C 2898.31,2080.96 2891.31,2092.29 2884.5,2103.5C 2883.5,2103.5 2882.5,2103.5 2881.5,2103.5C 2881.66,2104.87 2881.49,2106.21 2881,2107.5C 2874.64,2116.89 2867.81,2125.89 2860.5,2134.5C 2859.68,2135.39 2858.68,2135.72 2857.5,2135.5C 2857.66,2136.87 2857.49,2138.21 2857,2139.5C 2845.29,2153.2 2833.63,2166.87 2822,2180.5C 2814.88,2186.45 2808.72,2193.11 2803.5,2200.5C 2802.32,2200.28 2801.32,2200.61 2800.5,2201.5C 2773.68,2229.08 2745.01,2254.58 2714.5,2278C 2713.55,2278.48 2712.55,2278.65 2711.5,2278.5C 2711.5,2279.5 2711.5,2280.5 2711.5,2281.5C 2686.84,2299.43 2662.18,2317.26 2637.5,2335C 2628.13,2340.68 2618.8,2346.35 2609.5,2352C 2605.78,2356.29 2601.12,2358.79 2595.5,2359.5C 2595.5,2360.5 2595.5,2361.5 2595.5,2362.5C 2594.45,2362.35 2593.45,2362.52 2592.5,2363C 2581.57,2369.98 2570.57,2376.81 2559.5,2383.5C 2556.32,2385.11 2552.98,2386.11 2549.5,2386.5C 2549.5,2387.5 2549.5,2388.5 2549.5,2389.5C 2540.53,2393 2532.2,2397.5 2524.5,2403C 2518.29,2404.27 2512.96,2406.94 2508.5,2411C 2503.24,2412.55 2498.24,2414.55 2493.5,2417C 2491.17,2418.67 2488.83,2420.33 2486.5,2422C 2474.92,2427.48 2463.26,2432.81 2451.5,2438C 2445.18,2439.61 2439.18,2441.78 2433.5,2444.5C 2431.04,2445.73 2428.71,2447.23 2426.5,2449C 2422.52,2450.21 2418.52,2451.38 2414.5,2452.5C 2411.8,2453.82 2409.13,2455.32 2406.5,2457C 2402.5,2458 2398.5,2459 2394.5,2460C 2393.83,2460.67 2393.17,2461.33 2392.5,2462C 2383.35,2465.21 2374.02,2468.38 2364.5,2471.5C 2364.29,2472.09 2363.96,2472.59 2363.5,2473C 2356.08,2475.68 2348.42,2477.52 2340.5,2478.5C 2340.5,2479.5 2340.5,2480.5 2340.5,2481.5C 2332.03,2483.43 2323.37,2485.43 2314.5,2487.5C 2311.07,2488.7 2307.74,2490.2 2304.5,2492C 2291.39,2495.25 2278.39,2498.42 2265.5,2501.5C 2265.29,2502.09 2264.96,2502.59 2264.5,2503C 2257.78,2503.84 2251.11,2505.01 2244.5,2506.5C 2244.29,2507.09 2243.96,2507.59 2243.5,2508C 2239.79,2508.17 2236.12,2508.67 2232.5,2509.5C 2232.29,2510.09 2231.96,2510.59 2231.5,2511C 2223.77,2511.73 2216.1,2512.9 2208.5,2514.5C 2208.29,2515.09 2207.96,2515.59 2207.5,2516C 2202.47,2516.17 2197.47,2516.67 2192.5,2517.5C 2192.29,2518.09 2191.96,2518.59 2191.5,2519C 2176.65,2521.71 2161.65,2523.88 2146.5,2525.5C 2146.29,2526.09 2145.96,2526.59 2145.5,2527C 2140.17,2527.33 2134.83,2527.67 2129.5,2528C 2128.67,2528.91 2127.67,2529.58 2126.5,2530C 2113.21,2531.61 2099.88,2532.44 2086.5,2532.5C 2086.5,2533.5 2086.5,2534.5 2086.5,2535.5C 2079.5,2535.5 2072.5,2535.5 2065.5,2535.5C 2066.05,2532 2065.21,2529 2063,2526.5C 2062.83,2519.48 2062.33,2512.48 2061.5,2505.5C 2060.91,2505.29 2060.41,2504.96 2060,2504.5C 2058,2484.33 2057.17,2464 2057.5,2443.5C 2056.5,2443.5 2055.5,2443.5 2054.5,2443.5C 2054.67,2421.83 2054.5,2400.16 2054,2378.5C 2052.88,2377.05 2052.22,2375.38 2052,2373.5C 2051.33,2350.5 2051.33,2327.5 2052,2304.5C 2052.29,2302.96 2052.96,2301.62 2054,2300.5C 2054.33,2270.83 2054.67,2241.17 2055,2211.5C 2055.41,2211.04 2055.91,2210.71 2056.5,2210.5C 2057.33,2192.84 2057.83,2175.18 2058,2157.5C 2058.97,2132.81 2060.63,2108.14 2063,2083.5C 2063.67,2082.83 2064.33,2082.17 2065,2081.5C 2065.33,2072.17 2065.67,2062.83 2066,2053.5C 2066.41,2053.04 2066.91,2052.71 2067.5,2052.5C 2068.9,2034.51 2070.07,2016.51 2071,1998.5C 2071.41,1998.04 2071.91,1997.71 2072.5,1997.5C 2073.17,1989.5 2073.83,1981.5 2074.5,1973.5C 2075.09,1973.29 2075.59,1972.96 2076,1972.5C 2076.28,1957.67 2077.28,1943 2079,1928.5C 2081.13,1920.71 2082.13,1912.71 2082,1904.5C 2082.41,1904.04 2082.91,1903.71 2083.5,1903.5C 2085.37,1882.38 2087.54,1861.38 2090,1840.5C 2090.41,1840.04 2090.91,1839.71 2091.5,1839.5C 2092.17,1832.83 2092.83,1826.17 2093.5,1819.5C 2094.09,1819.29 2094.59,1818.96 2095,1818.5C 2095.52,1805.72 2096.52,1793.05 2098,1780.5C 2098.31,1779.69 2098.81,1779.03 2099.5,1778.5C 2100.33,1772.53 2100.83,1766.53 2101,1760.5C 2101.41,1760.04 2101.91,1759.71 2102.5,1759.5C 2104.37,1740.67 2106.54,1722 2109,1703.5C 2109.41,1703.04 2109.91,1702.71 2110.5,1702.5C 2113.77,1678.27 2116.93,1654.27 2120,1630.5C 2120.41,1630.04 2120.91,1629.71 2121.5,1629.5C 2122.98,1618.53 2124.14,1607.53 2125,1596.5C 2125.67,1595.83 2126.33,1595.17 2127,1594.5C 2127.33,1591.17 2127.67,1587.83 2128,1584.5C 2130.04,1582.35 2132.54,1581.35 2135.5,1581.5C 2135.5,1580.5 2135.5,1579.5 2135.5,1578.5C 2137.91,1577.31 2140.24,1575.81 2142.5,1574C 2143.79,1573.51 2145.13,1573.34 2146.5,1573.5C 2146.5,1572.5 2146.5,1571.5 2146.5,1570.5C 2147.5,1570.5 2148.5,1570.5 2149.5,1570.5C 2149.5,1569.5 2149.5,1568.5 2149.5,1567.5C 2153.74,1565.54 2158.08,1563.88 2162.5,1562.5C 2162.5,1561.5 2162.5,1560.5 2162.5,1559.5C 2165.71,1558.56 2168.71,1557.06 2171.5,1555C 2173.13,1554.51 2174.8,1554.34 2176.5,1554.5C 2176.5,1553.5 2176.5,1552.5 2176.5,1551.5C 2178.17,1551.5 2179.83,1551.5 2181.5,1551.5C 2181.5,1550.5 2181.5,1549.5 2181.5,1548.5C 2184.88,1547.74 2187.88,1546.24 2190.5,1544C 2192.13,1543.51 2193.8,1543.34 2195.5,1543.5C 2195.5,1542.5 2195.5,1541.5 2195.5,1540.5C 2200.75,1538.68 2206.08,1536.85 2211.5,1535C 2213.67,1532.8 2216.34,1531.96 2219.5,1532.5C 2219.5,1531.5 2219.5,1530.5 2219.5,1529.5C 2223.12,1528.63 2226.79,1527.96 2230.5,1527.5C 2230.5,1526.5 2230.5,1525.5 2230.5,1524.5C 2233.17,1524.5 2235.83,1524.5 2238.5,1524.5C 2238.5,1523.5 2238.5,1522.5 2238.5,1521.5C 2240.53,1521.66 2242.53,1521.5 2244.5,1521C 2249.19,1518.5 2254.19,1516.83 2259.5,1516C 2262.37,1513.91 2265.71,1512.91 2269.5,1513C 2270.17,1512.33 2270.83,1511.67 2271.5,1511C 2277.51,1509.9 2283.51,1508.73 2289.5,1507.5C 2289.71,1506.91 2290.04,1506.41 2290.5,1506C 2294.52,1506.05 2298.19,1505.05 2301.5,1503C 2311.02,1501.46 2320.69,1500.29 2330.5,1499.5C 2330.71,1498.91 2331.04,1498.41 2331.5,1498C 2336.53,1497.83 2341.53,1497.33 2346.5,1496.5C 2346.71,1495.91 2347.04,1495.41 2347.5,1495C 2357.4,1495.16 2367.06,1494.16 2376.5,1492C 2389.17,1491.67 2401.83,1491.33 2414.5,1491C 2415.06,1490.62 2415.39,1490.12 2415.5,1489.5 Z M 2421.5,1694.5 C 2431.47,1695.12 2441.47,1695.79 2451.5,1696.5C 2451.71,1697.09 2452.04,1697.59 2452.5,1698C 2460.21,1698.7 2467.87,1699.7 2475.5,1701C 2475.96,1701.41 2476.29,1701.91 2476.5,1702.5C 2486.67,1705.04 2496.67,1708.21 2506.5,1712C 2511.81,1715.3 2517.14,1718.63 2522.5,1722C 2524.13,1722.49 2525.8,1722.66 2527.5,1722.5C 2527.5,1723.5 2527.5,1724.5 2527.5,1725.5C 2530,1726.64 2532.67,1727.31 2535.5,1727.5C 2535.5,1728.5 2535.5,1729.5 2535.5,1730.5C 2536.5,1730.5 2537.5,1730.5 2538.5,1730.5C 2539.52,1733.84 2541.85,1735.84 2545.5,1736.5C 2551.83,1742.83 2558.17,1749.17 2564.5,1755.5C 2566.54,1758.94 2568.54,1762.27 2570.5,1765.5C 2571.5,1765.5 2572.5,1765.5 2573.5,1765.5C 2573.69,1768.31 2574.36,1770.98 2575.5,1773.5C 2576.5,1773.5 2577.5,1773.5 2578.5,1773.5C 2578.34,1775.2 2578.51,1776.87 2579,1778.5C 2583.79,1786.34 2588.13,1794.34 2592,1802.5C 2593.17,1807.16 2594.33,1811.83 2595.5,1816.5C 2596.09,1816.71 2596.59,1817.04 2597,1817.5C 2597.33,1820.5 2597.67,1823.5 2598,1826.5C 2598.41,1826.96 2598.91,1827.29 2599.5,1827.5C 2601.36,1837.76 2602.53,1848.09 2603,1858.5C 2603.31,1859.31 2603.81,1859.97 2604.5,1860.5C 2605.67,1875.49 2605.83,1890.49 2605,1905.5C 2604.09,1906.33 2603.42,1907.33 2603,1908.5C 2602.66,1921.57 2601.49,1934.57 2599.5,1947.5C 2598.91,1947.71 2598.41,1948.04 2598,1948.5C 2597.83,1953.2 2597.33,1957.87 2596.5,1962.5C 2595.91,1962.71 2595.41,1963.04 2595,1963.5C 2593.44,1969.01 2592.27,1974.67 2591.5,1980.5C 2590.91,1980.71 2590.41,1981.04 2590,1981.5C 2587.91,1989.52 2585.41,1997.52 2582.5,2005.5C 2578.34,2013.05 2575.01,2021.05 2572.5,2029.5C 2571.27,2031.96 2569.77,2034.29 2568,2036.5C 2566.62,2039.37 2565.78,2042.37 2565.5,2045.5C 2564.5,2045.5 2563.5,2045.5 2562.5,2045.5C 2562.5,2047.5 2562.5,2049.5 2562.5,2051.5C 2561.5,2051.5 2560.5,2051.5 2559.5,2051.5C 2554.76,2060.35 2550.42,2069.35 2546.5,2078.5C 2545.5,2078.5 2544.5,2078.5 2543.5,2078.5C 2541.65,2082.06 2539.98,2085.72 2538.5,2089.5C 2537.5,2089.5 2536.5,2089.5 2535.5,2089.5C 2535.5,2091.17 2535.5,2092.83 2535.5,2094.5C 2534.5,2094.5 2533.5,2094.5 2532.5,2094.5C 2530.65,2098.06 2528.98,2101.72 2527.5,2105.5C 2526.5,2105.5 2525.5,2105.5 2524.5,2105.5C 2522.66,2108.28 2521,2111.28 2519.5,2114.5C 2514.5,2119.09 2510,2124.09 2506,2129.5C 2505.52,2130.45 2505.35,2131.45 2505.5,2132.5C 2504.32,2132.28 2503.32,2132.61 2502.5,2133.5C 2494.22,2143.12 2485.55,2152.45 2476.5,2161.5C 2474.58,2163.07 2473.58,2165.07 2473.5,2167.5C 2469.17,2168.5 2466.5,2171.17 2465.5,2175.5C 2464.5,2175.5 2463.5,2175.5 2462.5,2175.5C 2462.5,2176.5 2462.5,2177.5 2462.5,2178.5C 2456.12,2181.03 2450.79,2185.03 2446.5,2190.5C 2445.68,2191.39 2444.68,2191.72 2443.5,2191.5C 2443.5,2192.5 2443.5,2193.5 2443.5,2194.5C 2434.99,2199.67 2427.32,2206 2420.5,2213.5C 2417.83,2215.17 2415.17,2216.83 2412.5,2218.5C 2411.61,2219.32 2411.28,2220.32 2411.5,2221.5C 2406.55,2223.8 2401.89,2226.47 2397.5,2229.5C 2397.5,2230.5 2397.5,2231.5 2397.5,2232.5C 2393.5,2233.6 2389.83,2235.27 2386.5,2237.5C 2386.5,2238.5 2386.5,2239.5 2386.5,2240.5C 2385.13,2240.34 2383.79,2240.51 2382.5,2241C 2372.52,2249 2361.85,2256 2350.5,2262C 2348.83,2263.67 2347.17,2265.33 2345.5,2267C 2341.14,2268.85 2336.81,2270.68 2332.5,2272.5C 2332.5,2273.5 2332.5,2274.5 2332.5,2275.5C 2323.89,2278.16 2315.89,2282.16 2308.5,2287.5C 2306.95,2288.45 2305.29,2288.79 2303.5,2288.5C 2303.5,2289.5 2303.5,2290.5 2303.5,2291.5C 2301.5,2291.5 2299.5,2291.5 2297.5,2291.5C 2297.5,2292.5 2297.5,2293.5 2297.5,2294.5C 2290.73,2295.19 2284.73,2297.69 2279.5,2302C 2263.13,2307.95 2247.13,2314.45 2231.5,2321.5C 2232.62,2309.52 2234.12,2297.52 2236,2285.5C 2235.9,2272.36 2236.9,2259.36 2239,2246.5C 2240.62,2225.9 2241.78,2205.23 2242.5,2184.5C 2243.25,2183.62 2243.75,2182.62 2244,2181.5C 2243.86,2168.04 2244.86,2154.71 2247,2141.5C 2248.73,2116.93 2249.73,2092.26 2250,2067.5C 2250.86,2065.91 2251.53,2064.25 2252,2062.5C 2252.33,2046.83 2252.67,2031.17 2253,2015.5C 2254.04,2013.29 2254.71,2010.95 2255,2008.5C 2256.88,1978.16 2258.88,1947.83 2261,1917.5C 2261.91,1916.67 2262.58,1915.67 2263,1914.5C 2265.4,1888.59 2267.4,1862.59 2269,1836.5C 2269.91,1835.67 2270.58,1834.67 2271,1833.5C 2273.49,1810.28 2275.49,1786.94 2277,1763.5C 2277.67,1762.83 2278.33,1762.17 2279,1761.5C 2278.84,1752.92 2279.84,1744.59 2282,1736.5C 2282.12,1727.38 2282.95,1718.38 2284.5,1709.5C 2296.57,1707.24 2308.91,1705.91 2321.5,1705.5C 2321.71,1704.91 2322.04,1704.41 2322.5,1704C 2330.17,1703.67 2337.83,1703.33 2345.5,1703C 2345.96,1702.59 2346.29,1702.09 2346.5,1701.5C 2361.49,1700 2376.49,1698.67 2391.5,1697.5C 2391.71,1696.91 2392.04,1696.41 2392.5,1696C 2402.34,1695.83 2412.01,1695.33 2421.5,1694.5 Z"/></g>
<g><path style="opacity:0.981" fill="#3b3b3b" d="M 634.5,1494.5 C 657.5,1494.5 680.5,1494.5 703.5,1494.5C 703.5,1495.5 703.5,1496.5 703.5,1497.5C 704.5,1497.5 705.5,1497.5 706.5,1497.5C 706.5,1498.5 706.5,1499.5 706.5,1500.5C 707.5,1500.5 708.5,1500.5 709.5,1500.5C 711.405,1504.66 713.072,1508.99 714.5,1513.5C 715.5,1513.5 716.5,1513.5 717.5,1513.5C 719.611,1517.65 721.444,1521.99 723,1526.5C 727.556,1530.02 730.056,1534.69 730.5,1540.5C 731.5,1540.5 732.5,1540.5 733.5,1540.5C 733.351,1541.55 733.517,1542.55 734,1543.5C 738.288,1547.96 740.788,1553.29 741.5,1559.5C 742.5,1559.5 743.5,1559.5 744.5,1559.5C 745.44,1562.71 746.94,1565.71 749,1568.5C 749.494,1570.13 749.66,1571.8 749.5,1573.5C 750.5,1573.5 751.5,1573.5 752.5,1573.5C 754.314,1578 756.147,1582.67 758,1587.5C 761.912,1592.37 765.245,1597.7 768,1603.5C 768.494,1605.13 768.66,1606.8 768.5,1608.5C 769.5,1608.5 770.5,1608.5 771.5,1608.5C 772.657,1612.22 774.157,1615.89 776,1619.5C 776.494,1621.13 776.66,1622.8 776.5,1624.5C 777.5,1624.5 778.5,1624.5 779.5,1624.5C 781.693,1629.89 784.193,1635.22 787,1640.5C 787.495,1642.47 787.662,1644.47 787.5,1646.5C 788.5,1646.5 789.5,1646.5 790.5,1646.5C 792.261,1652.42 794.094,1658.42 796,1664.5C 805.654,1686.47 815.321,1708.47 825,1730.5C 825.333,1732.5 825.667,1734.5 826,1736.5C 829.193,1740.93 830.693,1745.93 830.5,1751.5C 831.5,1751.5 832.5,1751.5 833.5,1751.5C 834.725,1755.75 835.891,1760.08 837,1764.5C 841.57,1774.04 845.57,1783.71 849,1793.5C 849.497,1795.81 849.663,1798.14 849.5,1800.5C 850.5,1800.5 851.5,1800.5 852.5,1800.5C 852.337,1802.86 852.503,1805.19 853,1807.5C 856.173,1811.55 857.673,1816.22 857.5,1821.5C 858.5,1821.5 859.5,1821.5 860.5,1821.5C 859.955,1825 860.788,1828 863,1830.5C 863.333,1832.5 863.667,1834.5 864,1836.5C 867.09,1845.01 870.423,1853.34 874,1861.5C 875.475,1866.06 876.308,1870.73 876.5,1875.5C 877.5,1875.5 878.5,1875.5 879.5,1875.5C 879.192,1877.92 879.526,1880.26 880.5,1882.5C 883.186,1890.25 885.853,1897.92 888.5,1905.5C 889.086,1905.71 889.586,1906.04 890,1906.5C 895.536,1922.24 900.369,1938.24 904.5,1954.5C 905.858,1957.78 907.358,1961.12 909,1964.5C 910.71,1972.68 912.71,1980.68 915,1988.5C 916.667,1991.83 918.333,1995.17 920,1998.5C 921.318,2003.43 922.151,2008.43 922.5,2013.5C 923.5,2013.5 924.5,2013.5 925.5,2013.5C 926.691,2019.56 928.191,2025.56 930,2031.5C 930.498,2034.48 930.665,2037.48 930.5,2040.5C 931.5,2040.5 932.5,2040.5 933.5,2040.5C 935.73,2049.3 937.397,2058.3 938.5,2067.5C 939.5,2067.5 940.5,2067.5 941.5,2067.5C 940.88,2071.3 941.714,2074.64 944,2077.5C 946.42,2085.99 948.42,2094.66 950,2103.5C 950.667,2104.17 951.333,2104.83 952,2105.5C 953.624,2111.16 955.291,2116.83 957,2122.5C 957.498,2125.82 957.665,2129.15 957.5,2132.5C 958.5,2132.5 959.5,2132.5 960.5,2132.5C 960.335,2135.85 960.502,2139.18 961,2142.5C 961.414,2142.96 961.914,2143.29 962.5,2143.5C 964.479,2153.1 966.812,2162.44 969.5,2171.5C 970.086,2171.71 970.586,2172.04 971,2172.5C 973.713,2182.31 975.546,2192.31 976.5,2202.5C 977.5,2202.5 978.5,2202.5 979.5,2202.5C 981.57,2211.99 983.403,2221.66 985,2231.5C 986.748,2235.12 988.414,2238.78 990,2242.5C 991.507,2253.03 993.507,2263.37 996,2273.5C 996.667,2274.17 997.333,2274.83 998,2275.5C 1000.49,2286.07 1002.66,2296.74 1004.5,2307.5C 1005.09,2307.71 1005.59,2308.04 1006,2308.5C 1008.49,2318.66 1010.66,2328.99 1012.5,2339.5C 1013.09,2339.71 1013.59,2340.04 1014,2340.5C 1014.33,2343.83 1014.67,2347.17 1015,2350.5C 1015.41,2350.96 1015.91,2351.29 1016.5,2351.5C 1019.11,2362.86 1021.44,2374.2 1023.5,2385.5C 1024.09,2385.71 1024.59,2386.04 1025,2386.5C 1026.21,2394.33 1027.88,2402 1030,2409.5C 1030.5,2413.49 1030.67,2417.49 1030.5,2421.5C 1031.5,2421.5 1032.5,2421.5 1033.5,2421.5C 1035.91,2437.32 1038.74,2452.98 1042,2468.5C 1042.67,2469.17 1043.33,2469.83 1044,2470.5C 1044.48,2476.33 1045.15,2482 1046,2487.5C 1039.01,2492.04 1031.85,2496.21 1024.5,2500C 1017.01,2502.49 1009.35,2504.65 1001.5,2506.5C 998.072,2507.7 994.739,2509.2 991.5,2511C 981.193,2512.25 970.859,2513.08 960.5,2513.5C 960.5,2514.5 960.5,2515.5 960.5,2516.5C 939.823,2516.83 919.156,2516.5 898.5,2515.5C 891.31,2505.17 884.81,2494.5 879,2483.5C 852.387,2427.92 829.887,2370.58 811.5,2311.5C 806.843,2310.99 802.51,2311.83 798.5,2314C 784.82,2314.82 771.153,2315.82 757.5,2317C 756.833,2317.67 756.167,2318.33 755.5,2319C 739.351,2321.57 723.018,2323.57 706.5,2325C 705.833,2325.67 705.167,2326.33 704.5,2327C 699.5,2327.33 694.5,2327.67 689.5,2328C 688.833,2328.67 688.167,2329.33 687.5,2330C 679.629,2331.48 671.629,2332.48 663.5,2333C 662.833,2333.67 662.167,2334.33 661.5,2335C 657.514,2335.5 653.514,2335.67 649.5,2335.5C 649.5,2336.5 649.5,2337.5 649.5,2338.5C 638.58,2340.33 627.58,2342.16 616.5,2344C 615.833,2344.67 615.167,2345.33 614.5,2346C 605.375,2348.48 596.042,2350.48 586.5,2352C 582.782,2353.59 579.115,2355.25 575.5,2357C 566.817,2358.26 558.484,2360.26 550.5,2363C 547.167,2364.67 543.833,2366.33 540.5,2368C 538.19,2368.5 535.857,2368.66 533.5,2368.5C 532.274,2374 531.44,2379.67 531,2385.5C 530.586,2385.96 530.086,2386.29 529.5,2386.5C 528.675,2390.12 528.175,2393.79 528,2397.5C 527.333,2398.17 526.667,2398.83 526,2399.5C 524.276,2409.25 522.276,2418.91 520,2428.5C 517.714,2431.36 516.88,2434.7 517.5,2438.5C 516.5,2438.5 515.5,2438.5 514.5,2438.5C 514.253,2444.57 513.42,2450.57 512,2456.5C 510.252,2460.12 508.586,2463.78 507,2467.5C 506.476,2472.32 505.476,2476.99 504,2481.5C 499.913,2491.8 496.413,2502.46 493.5,2513.5C 492.5,2513.5 491.5,2513.5 490.5,2513.5C 491.227,2517.22 489.894,2519.89 486.5,2521.5C 485.614,2522.32 485.281,2523.32 485.5,2524.5C 484.5,2524.5 483.5,2524.5 482.5,2524.5C 482.649,2525.55 482.483,2526.55 482,2527.5C 478.844,2529.66 476.011,2532.16 473.5,2535C 471.866,2535.49 470.199,2535.66 468.5,2535.5C 468.439,2537.59 467.439,2539.09 465.5,2540C 463.19,2540.5 460.857,2540.66 458.5,2540.5C 458.5,2541.5 458.5,2542.5 458.5,2543.5C 445.296,2545.65 431.963,2547.65 418.5,2549.5C 415.833,2549.33 413.167,2549.17 410.5,2549C 408.956,2548.71 407.623,2548.04 406.5,2547C 395.167,2546.67 383.833,2546.33 372.5,2546C 372.043,2545.59 371.709,2545.09 371.5,2544.5C 360.849,2543.67 350.182,2543.17 339.5,2543C 339.043,2542.59 338.709,2542.09 338.5,2541.5C 325.342,2540.87 312.342,2539.7 299.5,2538C 299,2537.5 298.5,2537 298,2536.5C 297.333,2529.17 297.333,2521.83 298,2514.5C 298.29,2512.96 298.956,2511.62 300,2510.5C 300.333,2504.17 300.667,2497.83 301,2491.5C 301.308,2490.69 301.808,2490.03 302.5,2489.5C 303.33,2483.53 303.83,2477.53 304,2471.5C 305.189,2465.47 306.522,2459.47 308,2453.5C 308.333,2448.5 308.667,2443.5 309,2438.5C 309.419,2437.33 310.085,2436.33 311,2435.5C 313.454,2421.37 315.454,2407.04 317,2392.5C 317.915,2391.67 318.581,2390.67 319,2389.5C 319.333,2385.17 319.667,2380.83 320,2376.5C 320.414,2376.04 320.914,2375.71 321.5,2375.5C 323.403,2362.49 325.57,2349.49 328,2336.5C 328.667,2335.83 329.333,2335.17 330,2334.5C 331.999,2322.5 333.999,2310.5 336,2298.5C 336.667,2297.83 337.333,2297.17 338,2296.5C 340.5,2285.66 342.5,2274.66 344,2263.5C 344.667,2262.83 345.333,2262.17 346,2261.5C 348.242,2251.29 350.242,2240.95 352,2230.5C 354.004,2222.5 356.004,2214.5 358,2206.5C 358.915,2205.67 359.581,2204.67 360,2203.5C 361.514,2194.04 363.514,2184.71 366,2175.5C 366.419,2174.33 367.085,2173.33 368,2172.5C 368.702,2166.77 369.702,2161.1 371,2155.5C 371.667,2154.83 372.333,2154.17 373,2153.5C 373.333,2150.5 373.667,2147.5 374,2144.5C 374.414,2144.04 374.914,2143.71 375.5,2143.5C 377.455,2133.76 379.622,2124.09 382,2114.5C 382.414,2114.04 382.914,2113.71 383.5,2113.5C 387.847,2094.88 392.681,2076.54 398,2058.5C 399.744,2054.17 401.411,2049.84 403,2045.5C 404.78,2036.84 406.78,2028.17 409,2019.5C 409.414,2019.04 409.914,2018.71 410.5,2018.5C 416.49,1998.2 422.324,1977.87 428,1957.5C 428.414,1957.04 428.914,1956.71 429.5,1956.5C 431.484,1947.73 433.651,1939.06 436,1930.5C 437.796,1927.6 439.296,1924.6 440.5,1921.5C 442.437,1912.77 444.604,1904.1 447,1895.5C 447.414,1895.04 447.914,1894.71 448.5,1894.5C 453.065,1878.1 457.898,1861.76 463,1845.5C 467.192,1837.42 469.859,1828.76 471,1819.5C 472.758,1816.23 474.424,1812.89 476,1809.5C 477.502,1801.31 479.502,1793.31 482,1785.5C 482.667,1784.83 483.333,1784.17 484,1783.5C 485.844,1775.79 487.844,1768.12 490,1760.5C 491.667,1757.17 493.333,1753.83 495,1750.5C 496,1745.5 497,1740.5 498,1735.5C 502.123,1724.36 505.789,1713.02 509,1701.5C 509.414,1701.04 509.914,1700.71 510.5,1700.5C 512.668,1692.49 514.835,1684.49 517,1676.5C 518.803,1673.26 520.303,1669.93 521.5,1666.5C 525.263,1652.22 529.763,1638.22 535,1624.5C 535.333,1622.17 535.667,1619.83 536,1617.5C 539.56,1609.98 542.226,1601.98 544,1593.5C 546.093,1590.96 547.093,1587.96 547,1584.5C 555.36,1560.48 563.36,1536.15 571,1511.5C 574.698,1507.88 578.864,1505.05 583.5,1503C 592.83,1501.83 602.163,1500.67 611.5,1499.5C 611.709,1498.91 612.043,1498.41 612.5,1498C 619.5,1497.67 626.5,1497.33 633.5,1497C 634.252,1496.33 634.586,1495.5 634.5,1494.5 Z M 641.5,1814.5 C 662.477,1865.67 681.31,1917.67 698,1970.5C 698.667,1971.17 699.333,1971.83 700,1972.5C 700.858,1977.86 702.524,1982.86 705,1987.5C 705.333,1989.83 705.667,1992.17 706,1994.5C 707.796,1997.4 709.296,2000.4 710.5,2003.5C 715.056,2019.22 719.889,2034.89 725,2050.5C 727.093,2053.04 728.093,2056.04 728,2059.5C 737.19,2087.23 746.023,2114.9 754.5,2142.5C 752.473,2142.34 750.473,2142.5 748.5,2143C 741.768,2144.86 735.102,2147.03 728.5,2149.5C 728.291,2150.09 727.957,2150.59 727.5,2151C 722.312,2152.48 716.979,2153.48 711.5,2154C 707.782,2155.59 704.115,2157.25 700.5,2159C 691.784,2160.63 683.117,2162.63 674.5,2165C 674.043,2165.41 673.709,2165.91 673.5,2166.5C 661.027,2170.48 648.36,2173.65 635.5,2176C 635.043,2176.41 634.709,2176.91 634.5,2177.5C 628.213,2178.96 621.88,2180.13 615.5,2181C 615.043,2181.41 614.709,2181.91 614.5,2182.5C 610.204,2183.33 605.871,2183.83 601.5,2184C 601.043,2184.41 600.709,2184.91 600.5,2185.5C 587.183,2186.5 573.85,2186.83 560.5,2186.5C 560.335,2183.15 560.502,2179.82 561,2176.5C 561.667,2175.83 562.333,2175.17 563,2174.5C 563.333,2169.5 563.667,2164.5 564,2159.5C 564.915,2158.67 565.581,2157.67 566,2156.5C 567.481,2142.88 569.481,2129.54 572,2116.5C 572.667,2115.83 573.333,2115.17 574,2114.5C 576.459,2101.58 578.459,2088.58 580,2075.5C 580.667,2074.83 581.333,2074.17 582,2073.5C 581.868,2068.5 582.868,2063.83 585,2059.5C 586.477,2046.97 588.477,2034.64 591,2022.5C 591.667,2021.83 592.333,2021.17 593,2020.5C 593.891,2012.82 594.891,2005.15 596,1997.5C 596.667,1996.83 597.333,1996.17 598,1995.5C 598.175,1991.79 598.675,1988.12 599.5,1984.5C 600.086,1984.29 600.586,1983.96 601,1983.5C 603.325,1972.24 605.325,1960.9 607,1949.5C 607.667,1948.83 608.333,1948.17 609,1947.5C 611.362,1937.27 613.362,1926.93 615,1916.5C 615.667,1915.83 616.333,1915.17 617,1914.5C 617.031,1910.51 618.031,1906.85 620,1903.5C 621.129,1897.19 622.129,1890.85 623,1884.5C 623.667,1883.83 624.333,1883.17 625,1882.5C 625.333,1879.17 625.667,1875.83 626,1872.5C 626.667,1871.83 627.333,1871.17 628,1870.5C 630.418,1860.01 632.584,1849.34 634.5,1838.5C 635.086,1838.29 635.586,1837.96 636,1837.5C 638.227,1830.02 640.06,1822.35 641.5,1814.5 Z"/></g>
</svg>
